<svg xmlns="http://www.w3.org/2000/svg" xmlns:xlink="http://www.w3.org/1999/xlink" width="72" height="24" viewBox="0 0 72 24">
  <defs>
    <clipPath id="clip-path">
      <rect id="Rectangle_3821" data-name="Rectangle 3821" width="72" height="24" fill="none"/>
    </clipPath>
  </defs>
  <g id="new-mada-footer" clip-path="url(#clip-path)">
    <path id="Path_12209" data-name="Path 12209" d="M0,0H30.457V10.142H0Z" transform="translate(0 13.84)" fill="#02aa7c"/>
    <path id="Path_12210" data-name="Path 12210" d="M0,0H30.457V10.151H0Z" fill="#066bf3"/>
    <path id="Path_12193" data-name="Path 12193" d="M621.118,142.625l-.136.027a4.441,4.441,0,0,1-.986.127c-.8,0-1.736-.407-1.736-2.323,0-.985.163-2.3,1.646-2.3h.009a4.456,4.456,0,0,1,1.085.208l.117.036v4.221Zm.244-9.555-.244.045v3.544l-.217-.063-.063-.018a4.992,4.992,0,0,0-1.348-.235c-2.966,0-3.59,2.242-3.59,4.122,0,2.576,1.447,4.059,3.97,4.059a8.05,8.05,0,0,0,2.65-.371,1.17,1.17,0,0,0,.995-1.284V132.7c-.705.127-1.438.253-2.152.371" transform="translate(-560.204 -120.705)" fill="#331632"/>
    <path id="Path_12194" data-name="Path 12194" d="M719.709,178.891l-.127.036-.452.117a4.714,4.714,0,0,1-1.094.172c-.7,0-1.112-.344-1.112-.931,0-.38.172-1.021,1.311-1.021h1.474Zm-1.04-6.391a10.012,10.012,0,0,0-3.021.524l-.76.226.253,1.717.742-.244a8.722,8.722,0,0,1,2.469-.416c.326,0,1.32,0,1.32,1.076v.47h-1.384c-2.523,0-3.689.8-3.689,2.531,0,1.473,1.076,2.359,2.885,2.359a9.326,9.326,0,0,0,2.008-.271l.036-.009.036.009.226.036c.705.127,1.438.253,2.152.389v-5.641c0-1.826-1.1-2.757-3.274-2.757" transform="translate(-649.979 -156.907)" fill="#331632"/>
    <path id="Path_12195" data-name="Path 12195" d="M525.409,178.891l-.127.036-.452.117a4.646,4.646,0,0,1-1.094.172c-.7,0-1.112-.344-1.112-.931,0-.38.172-1.021,1.3-1.021H525.4Zm-1.031-6.391a9.966,9.966,0,0,0-3.02.524l-.76.226.253,1.717.741-.244a8.722,8.722,0,0,1,2.469-.416c.325,0,1.32,0,1.32,1.076v.47H524c-2.523,0-3.7.8-3.7,2.531,0,1.473,1.076,2.359,2.894,2.359a9.326,9.326,0,0,0,2.008-.271l.036-.009.036.009.217.036c.714.127,1.438.253,2.152.4v-5.641c.009-1.844-1.094-2.766-3.265-2.766" transform="translate(-473.249 -156.907)" fill="#331632"/>
    <path id="Path_12196" data-name="Path 12196" d="M386.182,172.609a6.1,6.1,0,0,0-2.451.542l-.09.045-.081-.063a3.711,3.711,0,0,0-2.2-.533,8.993,8.993,0,0,0-2.6.389c-.769.235-1.067.606-1.067,1.3v6.445h2.4v-5.957l.118-.036a3.062,3.062,0,0,1,1.058-.19.951.951,0,0,1,1.049,1.094v5.1H384.7v-5.2a1.749,1.749,0,0,0-.072-.524l-.081-.154.163-.072a2.852,2.852,0,0,1,1.176-.244.958.958,0,0,1,1.049,1.094v5.1h2.36v-5.333c0-1.889-1.013-2.8-3.111-2.8" transform="translate(-343.545 -156.998)" fill="#331632"/>
    <path id="Path_12197" data-name="Path 12197" d="M596.327,6.617a8.207,8.207,0,0,1-1.4-.127l-.136-.027V2.983a1.7,1.7,0,0,0-.063-.5l-.072-.145.154-.063c.036-.018.072-.027.118-.045l.027-.018.163-.054a.23.23,0,0,1,.063-.018A5.617,5.617,0,0,1,596.418,2h.009c1.474,0,1.646,1.311,1.646,2.3-.009,1.916-.959,2.323-1.745,2.323M596.318,0h-.063c-1.384,0-2.8.38-3.31,1.121a2.261,2.261,0,0,0-.434,1.347h0V6.056a1.059,1.059,0,0,1-.072.452l-.081.154H587.99v-2.5h-.009C587.927,1.536,586.371.09,584.12.09h-2.2c-.09.642-.163,1.094-.253,1.736h2.188c1.148,0,1.754.976,1.754,2.477V6.816l-.154-.081a1.659,1.659,0,0,0-.515-.072h-3.78c-.072.479-.163,1.1-.262,1.727h11.62c.4-.081.859-.154,1.257-.217a6.546,6.546,0,0,0,2.432.443,3.967,3.967,0,0,0,4.16-4.294A3.987,3.987,0,0,0,596.318,0" transform="translate(-528.37)" fill="#331632"/>
    <path id="Path_12198" data-name="Path 12198" d="M391.12,10.447h.109c2.523,0,3.7-.832,3.7-2.884a2.641,2.641,0,0,0-2.885-2.649H389.72a1,1,0,0,1-1.112-1.067c0-.452.172-1.012,1.311-1.012H395c.108-.66.163-1.076.262-1.736H389.98c-2.46,0-3.7,1.031-3.7,2.748,0,1.7,1.076,2.585,2.885,2.585h2.324a1.1,1.1,0,0,1,1.112,1.13,1.136,1.136,0,0,1-1.3,1.166h-.389L383.47,8.71h-1.356c-1.148,0-1.953-.651-1.953-2.16V5.511c0-1.573.624-2.549,1.953-2.549h2.206c.1-.669.163-1.094.253-1.727h-3.011c-2.252,0-3.807,1.51-3.861,4.14h0V6.551c.054,2.631,1.61,3.887,3.861,3.887h2.2l4.033.009h3.328Z" transform="translate(-343.545 -1)" fill="#331632"/>
  </g>
</svg>
