<svg xmlns="http://www.w3.org/2000/svg" xmlns:xlink="http://www.w3.org/1999/xlink" width="54" height="18" viewBox="0 0 54 18">
  <defs>
    <clipPath id="clip-path">
      <rect id="Rectangle_3583" data-name="Rectangle 3583" width="54" height="18" transform="translate(0 0)" fill="#fff" stroke="#fff" stroke-width="1"/>
    </clipPath>
  </defs>
  <g id="Mask_Group_25" data-name="Mask Group 25" clip-path="url(#clip-path)">
    <g id="paypal_2_" data-name="paypal (2)" transform="translate(0 2.467)">
      <path id="Path_11803" data-name="Path 11803" d="M54.143,31.6H51.229a.569.569,0,0,0-.429.343l-1.2,7.543a.227.227,0,0,0,.257.257H51.4a.227.227,0,0,0,.257-.257L52,37.343A.392.392,0,0,1,52.429,37h.943a2.987,2.987,0,0,0,3.343-2.829,2.247,2.247,0,0,0-.343-1.886,3.457,3.457,0,0,0-2.229-.686m.343,2.829c-.171,1.029-.943,1.029-1.714,1.029h-.514l.343-1.971c0-.086.086-.171.257-.171h.171c.514,0,1.029,0,1.286.343.171.086.171.343.171.771" transform="translate(-12.4 -28)" fill="#fff"/>
      <g id="Group_17665" data-name="Group 17665" transform="translate(16.2 3.6)">
        <path id="Path_11804" data-name="Path 11804" d="M26.143,31.6H23.229a.569.569,0,0,0-.429.343l-1.2,7.543a.227.227,0,0,0,.257.257h1.371a.57.57,0,0,0,.429-.343L24,37.343A.392.392,0,0,1,24.429,37h.943a2.987,2.987,0,0,0,3.343-2.829,2.247,2.247,0,0,0-.343-1.886,3.3,3.3,0,0,0-2.229-.686m.343,2.829c-.171,1.029-.943,1.029-1.714,1.029h-.429l.343-1.971c0-.086.086-.171.257-.171h.171c.514,0,1.029,0,1.286.343a.918.918,0,0,1,.086.771" transform="translate(-21.6 -31.6)" fill="#fff"/>
        <path id="Path_11805" data-name="Path 11805" d="M37.211,35.2H35.839c-.086,0-.257.086-.257.171L35.5,35.8l-.086-.171a2.016,2.016,0,0,0-1.629-.6,3.294,3.294,0,0,0-3.171,2.829A2.555,2.555,0,0,0,31.125,40a2.16,2.16,0,0,0,1.8.686,2.74,2.74,0,0,0,1.971-.771l-.086.429a.227.227,0,0,0,.257.257h1.286a.569.569,0,0,0,.429-.343l.771-4.8c-.086-.086-.257-.257-.343-.257m-1.971,2.743a1.658,1.658,0,0,1-1.629,1.371,1.371,1.371,0,0,1-.943-.343,1.828,1.828,0,0,1-.257-1.029A1.529,1.529,0,0,1,34.9,36.914a1.5,1.5,0,0,1,.343,1.029" transform="translate(-23.839 -32.457)" fill="#fff"/>
      </g>
      <path id="Path_11806" data-name="Path 11806" d="M65.1,35.2H63.725c-.086,0-.257.086-.257.171l-.086.429-.086-.171a2.016,2.016,0,0,0-1.629-.6A3.294,3.294,0,0,0,58.5,37.857,2.555,2.555,0,0,0,59.011,40a2.16,2.16,0,0,0,1.8.686,2.74,2.74,0,0,0,1.971-.771l-.086.429a.227.227,0,0,0,.257.257h1.286a.569.569,0,0,0,.429-.343l.771-4.8c-.086-.086-.171-.257-.343-.257m-1.971,2.743A1.658,1.658,0,0,1,61.5,39.314a1.371,1.371,0,0,1-.943-.343,1.828,1.828,0,0,1-.257-1.029,1.529,1.529,0,0,1,2.486-1.029.984.984,0,0,1,.343,1.029" transform="translate(-14.611 -28.857)" fill="#fff"/>
      <path id="Path_11807" data-name="Path 11807" d="M47.171,35.257H45.714a.445.445,0,0,0-.343.171l-1.886,2.914L42.629,35.6a.4.4,0,0,0-.429-.257H40.829c-.171,0-.257.171-.257.343l1.543,4.543-1.457,2.057c-.086.171,0,.429.171.429H42.2a.445.445,0,0,0,.343-.171l4.714-6.771c.257-.257.086-.514-.086-.514" transform="translate(-10.143 -28.914)" fill="#fff"/>
      <path id="Path_11808" data-name="Path 11808" d="M69.086,31.875l-1.2,7.714a.227.227,0,0,0,.257.257h1.2a.57.57,0,0,0,.429-.343l1.2-7.543a.227.227,0,0,0-.257-.257H69.343c-.086-.086-.171,0-.257.171" transform="translate(-16.971 -28.017)" fill="#fff"/>
      <path id="Path_11809" data-name="Path 11809" d="M9.857,27.829A4.235,4.235,0,0,0,6.6,26.8H2.314a.735.735,0,0,0-.6.514L0,38.543a.392.392,0,0,0,.343.429H3l.686-4.2v.171a.735.735,0,0,1,.6-.514H5.571c2.486,0,4.371-1.029,4.971-3.857v-.257h0a2.993,2.993,0,0,0-.686-2.486" transform="translate(0 -26.8)" fill="#fff" stroke="#fff" stroke-width="0.143"/>
      <path id="Path_11810" data-name="Path 11810" d="M11.371,31.486h0v.257C10.771,34.657,8.886,35.6,6.4,35.6H5.114a.735.735,0,0,0-.6.514l-.857,5.229A.314.314,0,0,0,4,41.686H6.229a.48.48,0,0,0,.514-.429v-.086l.429-2.657v-.171a.48.48,0,0,1,.514-.429h.343c2.143,0,3.857-.857,4.286-3.429a3.151,3.151,0,0,0-.429-2.571.878.878,0,0,0-.514-.429" transform="translate(-0.914 -27.971)" fill="#fff" stroke="#fff" stroke-width="0.143"/>
      <path id="Path_11811" data-name="Path 11811" d="M10.824,31.036c-.082,0-.164-.079-.246-.079a.31.31,0,0,1-.246-.079A4.524,4.524,0,0,0,9.264,30.8h-3.2a.31.31,0,0,0-.246.079.43.43,0,0,0-.246.393l-.657,4.086v.157a.7.7,0,0,1,.575-.471H6.72c2.38,0,4.186-.943,4.76-3.536a.281.281,0,0,1,.082-.236c-.164-.079-.246-.157-.41-.157-.246-.079-.246-.079-.328-.079" transform="translate(-1.229 -27.8)" fill="#fff"/>
    </g>
  </g>
</svg>
