<svg xmlns="http://www.w3.org/2000/svg" xmlns:xlink="http://www.w3.org/1999/xlink" width="72" height="24" viewBox="0 0 72 24">
  <defs>
    <clipPath id="clip-path">
      <rect id="Rectangle_3824" data-name="Rectangle 3824" width="72" height="24" fill="none"/>
    </clipPath>
  </defs>
  <g id="new-visa" clip-path="url(#clip-path)">
    <path id="Path_12208" data-name="Path 12208" d="M1842.06-494.77c-.041,3.239,2.886,5.046,5.092,6.121,2.266,1.1,3.027,1.81,3.018,2.8-.017,1.509-1.808,2.175-3.483,2.2a12.154,12.154,0,0,1-5.974-1.421l-1.053,4.927a17.516,17.516,0,0,0,6.469,1.193c6.11,0,10.107-3.016,10.129-7.693.024-5.935-8.209-6.263-8.153-8.916.02-.8.787-1.663,2.469-1.881a10.951,10.951,0,0,1,5.736,1l1.023-4.767a15.591,15.591,0,0,0-5.444-1c-5.751,0-9.8,3.057-9.829,7.433m25.1-7.022a2.651,2.651,0,0,0-2.476,1.65l-8.728,20.84h6.106l1.215-3.358h7.461l.7,3.358h5.381l-4.7-22.49h-4.968m.854,6.075,1.762,8.445h-4.826l3.064-8.445m-33.356-6.075-4.813,22.49h5.818l4.811-22.49h-5.816m-8.607,0-6.056,15.307-2.45-13.016a2.712,2.712,0,0,0-2.683-2.292h-9.9l-.138.653a24.228,24.228,0,0,1,5.74,1.913,2.464,2.464,0,0,1,1.382,1.976l4.639,17.947h6.149l9.427-22.49h-6.11" transform="translate(-1804.822 502.203)" fill="#2700eb"/>
    <rect id="Rectangle_3823" data-name="Rectangle 3823" width="72" height="24" fill="none"/>
  </g>
</svg>
